<?xml version="1.0" encoding="UTF-8"?>
<svg id="Layer_1" xmlns="http://www.w3.org/2000/svg" xmlns:xlink="http://www.w3.org/1999/xlink" version="1.1" viewBox="0 0 31.88 32">
  <!-- Generator: Adobe Illustrator 29.8.2, SVG Export Plug-In . SVG Version: 2.1.1 Build 3)  -->
  <defs>
    <style>
      .st0 {
        fill: url(#linear-gradient);
      }

      .st1 {
        fill: #fff;
      }
    </style>
    <linearGradient id="linear-gradient" x1="14.9" y1="29.05" x2="16.76" y2="5.79" gradientUnits="userSpaceOnUse">
      <stop offset="0" stop-color="#0f1723"/>
      <stop offset="1" stop-color="#000"/>
    </linearGradient>
  </defs>
  <circle class="st0" cx="15.94" cy="16" r="12.84"/>
  <g>
    <path class="st1" d="M21.11,10.89c-.39-.4-.95-.65-1.56-.65h-.85s-.03-.1-.05-.14c-.11-.27-.27-.5-.47-.7-.39-.4-.95-.65-1.56-.65h-1.36c-.61,0-1.16.25-1.56.65-.23.23-.42.52-.53.84h-.84c-.61,0-1.16.25-1.56.65-.4.39-.65.95-.65,1.56v8.6c0,.61.25,1.16.65,1.56.4.4.95.65,1.56.65h7.21c.61,0,1.16-.25,1.56-.65.4-.4.65-.95.65-1.56v-8.6c0-.61-.25-1.16-.65-1.56ZM15.26,10.18h1.36c.11,0,.21.02.3.06.09.04.17.09.25.17.14.14.23.33.23.55s-.09.41-.23.55c-.07.07-.15.13-.25.17-.09.04-.19.06-.3.06h-1.36c-.11,0-.21-.02-.3-.06-.09-.04-.17-.1-.25-.17-.14-.14-.23-.33-.23-.55s.09-.41.23-.55c.07-.07.15-.13.25-.17.09-.04.19-.06.3-.06ZM20.32,21.05c0,.21-.09.41-.23.55-.14.14-.33.23-.55.23h-7.21c-.21,0-.41-.09-.55-.23-.14-.14-.23-.33-.23-.55v-8.6c0-.22.09-.41.23-.55s.33-.23.55-.23h.84c.11.32.29.61.53.84.39.4.95.65,1.56.65h1.36c.61,0,1.16-.25,1.56-.65.23-.23.42-.52.52-.84h.85c.22,0,.41.09.55.23.14.14.23.33.23.55v8.6Z"/>
    <path class="st1" d="M17.79,15.14l-2.58,2.58-1.12-1.12c-.28-.28-.73-.28-1.01,0-.28.28-.28.73,0,1.01l1.63,1.63c.28.28.73.28,1.01,0l3.09-3.09c.28-.28.28-.73,0-1.01s-.73-.28-1.01,0Z"/>
  </g>
</svg>